<svg width="77" height="43" viewBox="0 0 77 43" fill="none" xmlns="http://www.w3.org/2000/svg">
<g clip-path="url(#clip0_12_328)">
<path d="M57.3953 12.979L63.8113 1.97116C64.173 1.33423 63.9451 0.528655 63.3043 0.170076C62.6751 -0.181953 61.8774 0.027627 61.5059 0.643269L55.0156 11.7805C44.5353 7.10915 32.539 7.10915 22.0587 11.7805L15.5668 0.643269C15.1886 0.0161656 14.3695 -0.186865 13.737 0.188087C13.116 0.55649 12.9046 1.34733 13.2597 1.97116L19.6757 12.979C8.61079 18.9177 1.09658 29.9632 0 42.9998H77C75.9034 29.9632 68.3694 18.9177 57.397 12.9807L57.3953 12.979ZM20.7937 32.1196C19.0266 32.1196 17.5948 30.7 17.5948 28.9481C17.5948 27.1961 19.0266 25.7765 20.7937 25.7765C22.5608 25.7765 23.9926 27.1961 23.9926 28.9481C23.9926 30.7 22.5608 32.1196 20.7937 32.1196ZM56.2426 32.1196C54.4755 32.1196 53.0437 30.7 53.0437 28.9481C53.0437 27.1961 54.4755 25.7765 56.2426 25.7765C58.0097 25.7765 59.4415 27.1961 59.4415 28.9481C59.4415 30.7 58.0097 32.1196 56.2426 32.1196Z" fill="#2E2C2F"/>
</g>
<defs>
<clipPath id="clip0_12_328">
<rect width="77" height="43" fill="white"/>
</clipPath>
</defs>
</svg>
