<svg width="21" height="16" viewBox="0 0 21 16" fill="none" xmlns="http://www.w3.org/2000/svg">
<path fill-rule="evenodd" clip-rule="evenodd" d="M0 1.34113C0 0.600692 0.60024 0.000448227 1.34068 0.000448227H19.6593C20.3998 0.000448227 21 0.600683 21 1.34112V1.69403C21 2.43447 20.3998 3.03471 19.6593 3.03471H1.34068C0.600247 3.03471 0 2.43447 0 1.69404V1.34113ZM0 7.82355C0 7.08311 0.60024 6.48287 1.34068 6.48287H19.6593C20.3998 6.48287 21 7.0831 21 7.82354V8.17645C21 8.91689 20.3998 9.51713 19.6593 9.51713H1.34068C0.600247 9.51713 0 8.9169 0 8.17646V7.82355ZM1.34068 12.9653C0.60024 12.9653 0 13.5655 0 14.306V14.6589C0 15.3993 0.600247 15.9996 1.34068 15.9996H19.6593C20.3998 15.9996 21 15.3993 21 14.6589V14.306C21 13.5655 20.3998 12.9653 19.6593 12.9653H1.34068Z" fill="#0E161E"/>
</svg>
