<svg width="1056" height="904" viewBox="0 0 1056 904" fill="none" xmlns="http://www.w3.org/2000/svg">
<path d="M938.804 702.172L877.601 734.839L817.145 700.811L817.889 634.247L879.092 601.58L939.548 635.608L938.804 702.172Z" fill="#63686C" stroke="#63686C" stroke-width="3"/>
<path d="M320.84 218.591L260.383 184.563L199.181 217.231L198.436 283.794L258.893 317.822L320.096 285.155L320.84 218.591Z" fill="#63686C" stroke="#63686C" stroke-width="3"/>
<path d="M877.621 598.963L816.418 631.631L755.962 597.602L756.706 531.039L817.909 498.371L878.365 532.399L877.621 598.963Z" fill="#4E5359" stroke="#4E5359" stroke-width="3"/>
<path d="M816.438 495.755L755.236 528.422L694.779 494.394L695.524 427.83L756.726 395.163L817.183 429.191L816.438 495.755Z" fill="#4E5359" stroke="#4E5359" stroke-width="3"/>
<path d="M752.962 597.569L691.76 630.236L631.303 596.208L632.047 529.644L693.25 496.977L753.707 531.005L752.962 597.569Z" fill="#63686C" stroke="#63686C" stroke-width="3"/>
<path d="M755.255 392.546L694.053 425.214L633.596 391.185L634.341 324.622L695.543 291.954L756 325.982L755.255 392.546Z" fill="#4E5359" stroke="#4E5359" stroke-width="3"/>
<path d="M196.143 488.817L256.6 522.845L317.802 490.178L318.547 423.614L258.09 389.586L196.888 422.253L196.143 488.817Z" fill="#63686C" stroke="#63686C" stroke-width="3"/>
<path d="M132.762 590.639L193.219 624.667L254.421 592L255.166 525.436L194.709 491.408L133.507 524.075L132.762 590.639Z" fill="#787C80" stroke="#787C80" stroke-width="3"/>
<path d="M71.7623 487.639L132.219 521.667L193.421 489L194.166 422.436L133.709 388.408L72.5068 421.075L71.7623 487.639Z" fill="#787C80" stroke="#787C80" stroke-width="3"/>
<path d="M691.779 494.36L630.577 527.028L570.12 493L570.865 426.436L632.067 393.768L692.524 427.797L691.779 494.36Z" fill="#63686C" stroke="#63686C" stroke-width="3"/>
<path d="M257.326 592.025L317.783 626.054L378.985 593.386L379.73 526.822L319.273 492.794L258.071 525.462L257.326 592.025Z" fill="#787C80" stroke="#787C80" stroke-width="3"/>
<path d="M697.817 222.807L759.019 190.14L819.476 224.168L818.731 290.732L757.529 323.399L697.072 289.371L697.817 222.807Z" fill="#383F45" stroke="#383F45" stroke-width="3"/>
<path d="M694.072 289.338L632.87 322.005L572.413 287.977L573.158 221.413L634.36 188.746L694.817 222.774L694.072 289.338Z" fill="#383F45" stroke="#383F45" stroke-width="3"/>
<path d="M259.619 387.003L320.076 421.031L381.278 388.363L382.023 321.8L321.566 287.771L260.364 320.439L259.619 387.003Z" fill="#63686C" stroke="#63686C" stroke-width="3"/>
<path d="M761.293 120.993L822.495 88.326L882.952 122.354L882.207 188.918L821.005 221.585L760.548 187.557L761.293 120.993Z" fill="#383F45" stroke="#383F45" stroke-width="3"/>
<path d="M630.596 391.152L569.394 423.819L508.937 389.791L509.682 323.227L570.884 290.56L631.341 324.588L630.596 391.152Z" fill="#4E5359" stroke="#4E5359" stroke-width="3"/>
<path d="M320.802 490.211L381.259 524.239L442.461 491.572L443.206 425.008L382.749 390.98L321.547 423.647L320.802 490.211Z" fill="#787C80" stroke="#787C80" stroke-width="3"/>
<path d="M759 326.016L820.202 293.348L880.659 327.377L879.914 393.94L818.712 426.608L758.255 392.58L759 326.016Z" fill="#4E5359" stroke="#4E5359" stroke-width="3"/>
<path d="M632.89 186.129L571.687 218.797L511.23 184.768L511.975 118.205L573.177 85.5372L633.634 119.565L632.89 186.129Z" fill="#4E5359" stroke="#4E5359" stroke-width="3"/>
<path d="M323.095 285.188L383.552 319.217L444.754 286.549L445.499 219.985L385.042 185.957L323.84 218.625L323.095 285.188Z" fill="#63686C" stroke="#63686C" stroke-width="3"/>
<path d="M822.475 224.202L883.678 191.534L944.135 225.562L943.39 292.126L882.187 324.794L821.731 290.765L822.475 224.202Z" fill="#383F45" stroke="#383F45" stroke-width="3"/>
<path d="M569.413 287.943L508.211 320.611L447.754 286.583L448.499 220.019L509.701 187.351L570.158 221.38L569.413 287.943Z" fill="#4E5359" stroke="#4E5359" stroke-width="3"/>
<path d="M384.278 388.397L444.735 422.425L505.937 389.758L506.682 323.194L446.225 289.166L385.023 321.833L384.278 388.397Z" fill="#FF7061" stroke="#FF7061" stroke-width="3"/>
<path d="M567.12 492.966L505.917 525.634L445.461 491.605L446.205 425.042L507.408 392.374L567.865 426.402L567.12 492.966Z" fill="#63686C" stroke="#63686C" stroke-width="3"/>
<path d="M820.182 429.224L881.385 396.557L941.842 430.585L941.097 497.149L879.895 529.816L819.438 495.788L820.182 429.224Z" fill="#4E5359" stroke="#4E5359" stroke-width="3"/>
</svg>
