<svg width="1056" height="904" viewBox="0 0 1056 904" fill="none" xmlns="http://www.w3.org/2000/svg">
<g clip-path="url(#clip0_40_481)">
<path d="M938.805 702.09L876.935 734.835L815.812 700.715L816.559 634.003L878.429 601.258L939.551 635.378L938.805 702.09Z" fill="#63686C" stroke="#63686C" stroke-width="3"/>
<path d="M321.473 218.682L260.034 184.554L197.847 217.299L197.101 284.007L258.54 318.135L320.727 285.39L321.473 218.682Z" fill="#63686C" stroke="#63686C" stroke-width="3"/>
<path d="M877.622 598.882L815.752 631.626L754.63 597.506L755.376 530.794L817.246 498.05L878.368 532.17L877.622 598.882Z" fill="#4E5359" stroke="#4E5359" stroke-width="3"/>
<path d="M816.439 495.673L754.569 528.418L693.447 494.298L694.193 427.586L756.063 394.841L817.185 428.961L816.439 495.673Z" fill="#4E5359" stroke="#4E5359" stroke-width="3"/>
<path d="M752.963 597.488L691.093 630.232L629.971 596.112L630.717 529.4L692.587 496.655L753.709 530.775L752.963 597.488Z" fill="#63686C" stroke="#63686C" stroke-width="3"/>
<path d="M755.638 392.468L693.577 425.213L632.264 391.088L633.01 324.378L695.071 291.634L756.384 325.758L755.638 392.468Z" fill="#4E5359" stroke="#4E5359" stroke-width="3"/>
<path d="M196.144 488.735L257.267 522.856L319.137 490.111L319.883 423.399L258.761 389.279L196.89 422.023L196.144 488.735Z" fill="#63686C" stroke="#63686C" stroke-width="3"/>
<path d="M132.763 590.558L193.885 624.678L255.755 591.933L256.502 525.221L195.379 491.101L133.509 523.846L132.763 590.558Z" fill="#787C80" stroke="#787C80" stroke-width="3"/>
<path d="M71.7632 487.558L132.885 521.678L194.755 488.933L195.502 422.221L134.379 388.101L72.5093 420.846L71.7632 487.558Z" fill="#787C80" stroke="#787C80" stroke-width="3"/>
<path d="M691.78 494.279L629.91 527.024L568.788 492.903L569.534 426.191L631.404 393.447L692.526 427.567L691.78 494.279Z" fill="#63686C" stroke="#63686C" stroke-width="3"/>
<path d="M257.327 591.944L318.449 626.064L380.319 593.32L381.066 526.608L319.943 492.487L258.073 525.232L257.327 591.944Z" fill="#787C80" stroke="#787C80" stroke-width="3"/>
<path d="M697.816 222.889L759.686 190.144L820.808 224.264L820.062 290.976L758.192 323.721L697.069 289.601L697.816 222.889Z" fill="#383F45" stroke="#383F45" stroke-width="3"/>
<path d="M694.748 289.262L632.541 322.007L571.081 287.878L571.827 221.171L634.035 188.426L695.494 222.554L694.748 289.262Z" fill="#383F45" stroke="#383F45" stroke-width="3"/>
<path d="M259.62 386.921L320.742 421.042L382.613 388.297L383.359 321.585L322.236 287.465L260.366 320.209L259.62 386.921Z" fill="#63686C" stroke="#63686C" stroke-width="3"/>
<path d="M761.292 121.075L823.162 88.3301L884.284 122.45L883.538 189.163L821.668 221.907L760.546 187.787L761.292 121.075Z" fill="#383F45" stroke="#383F45" stroke-width="3"/>
<path d="M630.597 391.071L568.727 423.815L507.605 389.695L508.351 322.983L570.221 290.238L631.343 324.359L630.597 391.071Z" fill="#4E5359" stroke="#4E5359" stroke-width="3"/>
<path d="M320.803 490.13L381.925 524.25L443.795 491.505L444.542 424.793L383.419 390.673L321.549 423.418L320.803 490.13Z" fill="#787C80" stroke="#787C80" stroke-width="3"/>
<path d="M758.999 326.097L820.869 293.353L881.991 327.473L881.245 394.185L819.375 426.93L758.253 392.809L758.999 326.097Z" fill="#4E5359" stroke="#4E5359" stroke-width="3"/>
<path d="M632.89 186.048L571.02 218.793L509.898 184.672L510.644 117.96L572.514 85.2155L633.637 119.336L632.89 186.048Z" fill="#4E5359" stroke="#4E5359" stroke-width="3"/>
<path d="M323.096 285.107L384.219 319.227L446.089 286.483L446.835 219.771L385.713 185.65L323.842 218.395L323.096 285.107Z" fill="#63686C" stroke="#63686C" stroke-width="3"/>
<path d="M822.475 224.283L884.345 191.538L945.467 225.659L944.721 292.371L882.851 325.115L821.728 290.995L822.475 224.283Z" fill="#383F45" stroke="#383F45" stroke-width="3"/>
<path d="M569.414 287.862L507.544 320.607L446.422 286.486L447.168 219.774L509.038 187.03L570.161 221.15L569.414 287.862Z" fill="#4E5359" stroke="#4E5359" stroke-width="3"/>
<path d="M384.279 388.316L445.401 422.436L507.271 389.691L508.018 322.979L446.895 288.859L385.025 321.604L384.279 388.316Z" fill="#FF7061" stroke="#FF7061" stroke-width="3"/>
<path d="M567.121 492.885L505.251 525.629L444.129 491.509L444.875 424.797L506.745 392.053L567.867 426.173L567.121 492.885Z" fill="#63686C" stroke="#63686C" stroke-width="3"/>
<path d="M820.182 429.306L882.052 396.561L943.174 430.681L942.428 497.393L880.558 530.138L819.435 496.018L820.182 429.306Z" fill="#4E5359" stroke="#4E5359" stroke-width="3"/>
</g>
<defs>
<clipPath id="clip0_40_481">
<rect width="925.776" height="728.444" fill="white" transform="translate(0 190.625) rotate(-11.8827)"/>
</clipPath>
</defs>
</svg>
