<svg width="474" height="904" viewBox="0 0 474 904" fill="none" xmlns="http://www.w3.org/2000/svg">
<g clip-path="url(#clip0_50_33)">
<path d="M356.805 702.09L294.935 734.835L233.812 700.715L234.559 634.003L296.429 601.258L357.551 635.378L356.805 702.09Z" fill="#63686C" stroke="#63686C" stroke-width="3"/>
<path d="M295.622 598.882L233.752 631.626L172.63 597.506L173.376 530.794L235.246 498.05L296.368 532.17L295.622 598.882Z" fill="#4E5359" stroke="#4E5359" stroke-width="3"/>
<path d="M234.439 495.673L172.569 528.418L111.447 494.298L112.193 427.586L174.063 394.841L235.185 428.961L234.439 495.673Z" fill="#4E5359" stroke="#4E5359" stroke-width="3"/>
<path d="M170.963 597.488L109.093 630.232L47.9708 596.112L48.7169 529.4L110.587 496.655L171.709 530.775L170.963 597.488Z" fill="#63686C" stroke="#63686C" stroke-width="3"/>
<path d="M173.638 392.468L111.577 425.213L50.2639 391.088L51.01 324.378L113.071 291.633L174.384 325.758L173.638 392.468Z" fill="#4E5359" stroke="#4E5359" stroke-width="3"/>
<path d="M109.78 494.279L47.9101 527.024L-13.2121 492.903L-12.466 426.191L49.4041 393.447L110.526 427.567L109.78 494.279Z" fill="#63686C" stroke="#63686C" stroke-width="3"/>
<path d="M115.816 222.889L177.686 190.144L238.808 224.264L238.062 290.976L176.192 323.721L115.07 289.601L115.816 222.889Z" fill="#383F45" stroke="#383F45" stroke-width="3"/>
<path d="M112.748 289.262L50.5406 322.007L-10.9189 287.879L-10.1728 221.171L52.0346 188.426L113.494 222.554L112.748 289.262Z" fill="#383F45" stroke="#383F45" stroke-width="3"/>
<path d="M179.292 121.075L241.162 88.33L302.284 122.45L301.538 189.162L239.668 221.907L178.546 187.787L179.292 121.075Z" fill="#383F45" stroke="#383F45" stroke-width="3"/>
<path d="M48.5972 391.071L-13.2729 423.815L-74.3951 389.695L-73.649 322.983L-11.7789 290.238L49.3433 324.359L48.5972 391.071Z" fill="#4E5359" stroke="#4E5359" stroke-width="3"/>
<path d="M176.999 326.097L238.869 293.353L299.991 327.473L299.245 394.185L237.375 426.929L176.252 392.809L176.999 326.097Z" fill="#4E5359" stroke="#4E5359" stroke-width="3"/>
<path d="M50.8904 186.048L-10.9797 218.793L-72.1019 184.672L-71.3557 117.96L-9.48563 85.2155L51.6366 119.336L50.8904 186.048Z" fill="#4E5359" stroke="#4E5359" stroke-width="3"/>
<path d="M240.475 224.283L302.345 191.538L363.467 225.659L362.721 292.371L300.851 325.115L239.728 290.995L240.475 224.283Z" fill="#383F45" stroke="#383F45" stroke-width="3"/>
<path d="M238.182 429.306L300.052 396.561L361.174 430.681L360.428 497.393L298.558 530.138L237.435 496.018L238.182 429.306Z" fill="#4E5359" stroke="#4E5359" stroke-width="3"/>
</g>
<defs>
<clipPath id="clip0_50_33">
<rect width="925.776" height="728.444" fill="white" transform="translate(-582 190.625) rotate(-11.8827)"/>
</clipPath>
</defs>
</svg>
