<svg width="126" height="34" viewBox="0 0 126 34" fill="none" xmlns="http://www.w3.org/2000/svg">
<path fill-rule="evenodd" clip-rule="evenodd" d="M28.6357 8.7336L14.3178 0.467201L1.28663e-05 8.7336V25.2664L14.3178 33.5328L28.6357 25.2664L28.6357 8.7336ZM26.5995 9.9097L14.3187 2.81939L2.03794 9.9097V24.0903L14.3187 31.1806L26.5995 24.0903V9.9097Z" fill="#0E161E"/>
<mask id="mask0_3_64" style="mask-type:alpha" maskUnits="userSpaceOnUse" x="5" y="6" width="19" height="22">
<path d="M14.322 6.70821L23.4416 11.9734V22.5039L14.322 27.7691L5.20233 22.5039V11.9734L14.322 6.70821Z" fill="#0E161E"/>
</mask>
<g mask="url(#mask0_3_64)">
<path d="M14.322 6.70821L23.4416 11.9734V22.5039L14.322 27.7691L5.20234 22.5039V11.9734L14.322 6.70821Z" fill="#0F161E"/>
<path d="M14.322 -3.82224L23.4416 1.44298V11.9734L14.322 17.2386L5.20234 11.9734V1.44298L14.322 -3.82224Z" fill="#191F27"/>
<path d="M5.20006 11.9734L14.3197 17.2386L14.3197 27.7691L5.20006 33.0343L-3.91957 27.7691V17.2386L5.20006 11.9734Z" fill="#1C2A38"/>
<path d="M23.4439 11.9734L32.5635 17.2386V27.7691L23.4439 33.0343L14.3242 27.7691L14.3242 17.2386L23.4439 11.9734Z" fill="#0F161E"/>
</g>
<path d="M34.4638 26C34.4638 26 34.4638 20.0898 34.4638 8.26953C34.4638 8.26953 35.0536 8.26953 36.2333 8.26953C36.2333 8.26953 36.2333 10.8672 36.2333 16.0625C36.2333 16.0625 39.2997 16.0625 45.4325 16.0625C45.4325 16.0625 45.4325 13.4648 45.4325 8.26953C45.4325 8.26953 46.0224 8.26953 47.2021 8.26953C47.2021 8.26953 47.2021 14.1797 47.2021 26C47.2021 26 46.6122 26 45.4325 26C45.4325 26 45.4325 23.2227 45.4325 17.668C45.4325 17.668 42.3661 17.668 36.2333 17.668C36.2333 17.668 36.2333 20.4453 36.2333 26C36.2333 26 35.6435 26 34.4638 26ZM63.9186 20.0234C63.9186 20.0234 59.9616 20.0234 52.0475 20.0234C52.1178 21.3203 52.6491 22.4219 53.6413 23.3281C54.6335 24.2266 55.8053 24.6758 57.1569 24.6758C58.1569 24.6758 59.0788 24.4023 59.9225 23.8555C60.7663 23.3008 61.3717 22.5742 61.7389 21.6758H63.5905C63.1061 23.0586 62.278 24.1797 61.1061 25.0391C59.9342 25.8906 58.6335 26.3164 57.2038 26.3164C56.2507 26.3164 55.3444 26.1367 54.485 25.7773C53.6257 25.418 52.8874 24.9297 52.2702 24.3125C51.653 23.6953 51.1647 22.957 50.8053 22.0977C50.446 21.2383 50.2663 20.332 50.2663 19.3789C50.2663 18.1289 50.5671 16.9805 51.1686 15.9336C51.7702 14.8867 52.5905 14.0625 53.6296 13.4609C54.6686 12.8594 55.8132 12.5586 57.0632 12.5586C58.36 12.5586 59.5514 12.8789 60.6374 13.5195C61.7311 14.1602 62.5632 15.0312 63.1335 16.1328C63.4225 16.6875 63.6257 17.2578 63.7428 17.8438C63.86 18.4219 63.9186 19.1484 63.9186 20.0234ZM52.0944 18.418H62.1491C61.8522 17.1133 61.2467 16.082 60.3327 15.3242C59.4264 14.5664 58.3366 14.1875 57.0632 14.1875C55.821 14.1875 54.7428 14.5781 53.8288 15.3594C52.9147 16.1328 52.3366 17.1523 52.0944 18.418ZM64.8032 26C64.8032 26 66.3266 23.7695 69.3735 19.3086C69.3735 19.3086 67.85 17.1641 64.8032 12.875C64.8032 12.875 65.475 12.875 66.8188 12.875C66.8188 12.875 68.0063 14.5625 70.3813 17.9375C70.3813 17.9375 71.5571 16.25 73.9086 12.875C73.9086 12.875 74.5883 12.875 75.9477 12.875C75.9477 12.875 74.4164 15.0195 71.3539 19.3086C71.3539 19.3086 72.8852 21.5391 75.9477 26C75.9477 26 75.268 26 73.9086 26C73.9086 26 72.7328 24.2461 70.3813 20.7383C70.3813 20.7383 69.1938 22.4922 66.8188 26C66.8188 26 66.1469 26 64.8032 26ZM83.9221 26C83.9221 26 81.4885 20.0898 76.6213 8.26953C76.6213 8.26953 77.2697 8.26953 78.5666 8.26953C78.5666 8.26953 80.6486 13.4453 84.8127 23.7969C84.8127 23.7969 86.8986 18.6211 91.0705 8.26953C91.0705 8.26953 91.7111 8.26953 92.9924 8.26953C92.9924 8.26953 90.5471 14.1797 85.6564 26C85.6564 26 85.0783 26 83.9221 26ZM94.9902 12.875C94.9902 12.875 95.5839 12.875 96.7714 12.875C96.7714 12.875 96.7714 13.625 96.7714 15.125C97.3183 14.2891 98.0292 13.6523 98.9042 13.2148C99.7871 12.7773 100.795 12.5586 101.928 12.5586C103.217 12.5586 104.389 12.8594 105.443 13.4609C106.498 14.0625 107.326 14.8906 107.928 15.9453C108.537 16.9922 108.842 18.1602 108.842 19.4492C108.842 20.7227 108.537 21.8867 107.928 22.9414C107.318 23.9883 106.478 24.8125 105.408 25.4141C104.346 26.0156 103.17 26.3164 101.881 26.3164C100.795 26.3164 99.8144 26.0977 98.9394 25.6602C98.0722 25.2148 97.3496 24.5742 96.7714 23.7383V30.6055H94.9902V12.875ZM101.787 14.1875C100.342 14.1875 99.123 14.6953 98.1308 15.7109C97.1386 16.7266 96.6425 17.9727 96.6425 19.4492C96.6425 20.9258 97.1425 22.168 98.1425 23.1758C99.1425 24.1758 100.381 24.6758 101.857 24.6758C103.334 24.6758 104.564 24.1836 105.549 23.1992C106.541 22.207 107.037 20.9727 107.037 19.4961C107.037 17.9492 106.541 16.6797 105.549 15.6875C104.564 14.6875 103.31 14.1875 101.787 14.1875ZM111.59 26C111.59 26 111.59 21.625 111.59 12.875C111.59 12.875 112.183 12.875 113.371 12.875C113.371 12.875 113.371 13.4414 113.371 14.5742C114.449 13.2305 115.855 12.5586 117.59 12.5586C118.519 12.5586 119.367 12.7344 120.133 13.0859C120.898 13.4297 121.539 13.9336 122.054 14.5977C122.476 15.1602 122.773 15.7773 122.945 16.4492C123.117 17.1211 123.203 18.0078 123.203 19.1094V26H121.433C121.433 26 121.433 23.7031 121.433 19.1094C121.433 18.2266 121.359 17.5156 121.211 16.9766C121.07 16.4297 120.832 15.9492 120.496 15.5352C119.754 14.6367 118.715 14.1875 117.379 14.1875C116.66 14.1875 116 14.3359 115.398 14.6328C114.804 14.9297 114.336 15.3438 113.992 15.875C113.765 16.2344 113.605 16.6328 113.511 17.0703C113.418 17.5 113.371 18.0703 113.371 18.7812V26H111.59Z" fill="black"/>
</svg>
