<svg width="24" height="24" viewBox="0 0 24 24" fill="none" xmlns="http://www.w3.org/2000/svg">
<rect width="24" height="24" rx="6" fill="#2DA4DC"/>
<path d="M8.66256 12.6946L10.0863 16.6352C10.0863 16.6352 10.2643 17.0039 10.4549 17.0039C10.6455 17.0039 13.4804 14.0547 13.4804 14.0547L16.6329 7.96567L8.71336 11.6774L8.66256 12.6946Z" fill="#C8DAEA"/>
<path d="M10.5503 13.7052L10.277 16.6098C10.277 16.6098 10.1626 17.4998 11.0524 16.6098C11.9422 15.7198 12.7939 15.0335 12.7939 15.0335" fill="#A9C6D8"/>
<path d="M8.68826 12.8352L5.75966 11.881C5.75966 11.881 5.40966 11.739 5.52236 11.417C5.54556 11.3506 5.59236 11.2941 5.73236 11.197C6.38126 10.7447 17.743 6.66097 17.743 6.66097C17.743 6.66097 18.0638 6.55287 18.253 6.62477C18.2998 6.63926 18.3419 6.66592 18.375 6.70203C18.4081 6.73814 18.4311 6.7824 18.4415 6.83027C18.4619 6.91484 18.4705 7.00185 18.4669 7.08877C18.466 7.16397 18.4569 7.23367 18.45 7.34297C18.3808 8.45947 16.31 16.7923 16.31 16.7923C16.31 16.7923 16.1861 17.2799 15.7422 17.2966C15.6331 17.3001 15.5244 17.2816 15.4226 17.2422C15.3208 17.2029 15.228 17.1434 15.1497 17.0674C14.2786 16.3181 11.2678 14.2947 10.6025 13.8497C10.5875 13.8394 10.5748 13.8261 10.5654 13.8106C10.556 13.7951 10.55 13.7777 10.5479 13.7597C10.5386 13.7128 10.5896 13.6547 10.5896 13.6547C10.5896 13.6547 15.8322 8.99467 15.9717 8.50547C15.9825 8.46757 15.9417 8.44887 15.8869 8.46547C15.5387 8.59357 9.50246 12.4055 8.83626 12.8262C8.7883 12.8407 8.73762 12.8438 8.68826 12.8352Z" fill="white"/>
</svg>
